<svg xmlns="http://www.w3.org/2000/svg" version="1.1" xmlns:xlink="http://www.w3.org/1999/xlink" xmlns:svgjs="http://svgjs.com/svgjs" width="256" height="256"><svg width="256" height="256" version="1.1" xmlns="http://www.w3.org/2000/svg">
  <path d="m-0.04912 0.0017988 0.0491 256 256.07 0.0505-0.0731-256.05z" style="fill:#99ff66"></path>
  <path d="m-0.04912 0.0017988 0.023438 42.965 12.367 6.8359 53.131 25.814 18.479 9.3848-10.021-22.689-20.299-39.91-11.68-22.4h-14.84z" style="fill:#cd34fe"></path>
  <path d="m84.48 86.244h-41l42 42z" style="fill:#cd34fe"></path>
  <path d="m171.17 84.983 84.828-43.219 0.00126-12.764v-29h-30l-13.127-0.013911-41.873 85.014m-3-42-41 42h42l-1-42m-40.946 127.67 42.946-42.666-42-40.793-40.793 40.793 39.847 42.666m43.946-42.666v41h41l-20-21-21-20m-87 43-84 42v43h42l42-85m2 0v41l21-20 19.956-20.85-40.956-0.1495m86 1 42 84 42.073 0.0505-0.0731-42.05z" style="fill:#cd34fe"></path>
</svg></svg>